<?xml version="1.0" encoding="UTF-8"?>
<svg version="1.1" viewBox="0 0 80 80" xmlns="http://www.w3.org/2000/svg" xmlns:cc="http://creativecommons.org/ns#" xmlns:dc="http://purl.org/dc/elements/1.1/" xmlns:rdf="http://www.w3.org/1999/02/22-rdf-syntax-ns#">
<defs>
<clipPath id="f">
<path d="M 0,841.89 H 595.276 V 0 H 0 Z"/>
</clipPath>
<clipPath id="e">
<path d="M 0,841.89 H 595.276 V 0 H 0 Z"/>
</clipPath>
<clipPath id="d">
<path d="M 0,841.89 H 595.276 V 0 H 0 Z"/>
</clipPath>
<clipPath id="c">
<path d="M 0,841.89 H 595.276 V 0 H 0 Z"/>
</clipPath>
<clipPath id="b">
<path d="M 0,841.89 H 595.276 V 0 H 0 Z"/>
</clipPath>
<clipPath id="a">
<path d="M 0,841.89 H 595.276 V 0 H 0 Z"/>
</clipPath>
</defs>
<metadata>
<rdf:RDF>
<cc:Work rdf:about="">
<dc:format>image/svg+xml</dc:format>
<dc:type rdf:resource="http://purl.org/dc/dcmitype/StillImage"/>
<dc:title/>
</cc:Work>
</rdf:RDF>
</metadata>
<g transform="matrix(.72367 0 0 .73959 2.347 10.233)">
<g transform="matrix(.83999 0 0 -.7761 -111.38 625.41)">
<g clip-path="url(#f)">
<text transform="matrix(.95552 0 0 -1 126.39 710.11)" fill="#1e130f" font-family="'Book Antiqua'" font-size="134.25px" font-weight="bold">
<tspan x="0 96.92749" y="0">C</tspan>
</text>
<g transform="translate(200.71 718.83)">
<path d="m0 0c-3.863-0.962-8.007-1.442-12.433-1.442-11.442 0-20.441 3.583-26.996 10.75-7.099 7.735-10.648 17.852-10.648 30.35 0 11.537 2.951 20.539 8.853 27.008 5.902 6.466 13.858 9.701 23.869 9.701 4.212 0 8.061-0.514 11.544-1.54 3.482-1.028 6.246-2.36 8.289-3.999s3.19-2.797 3.441-3.474c0.251-0.678 0.501-4.469 0.752-11.374h5.261c0.299 5.638 0.725 10.358 1.28 14.16 0.299 2.184 0.832 4.457 1.601 6.817l-0.438 0.983c-5.22 2.054-10.471 3.583-15.753 4.589-5.283 1.005-10.617 1.508-16.003 1.508-16.202 0-28.907-4.338-38.114-13.013s-13.811-19.807-13.811-33.398c0-9.439 2.035-17.808 6.107-25.105 4.071-7.299 9.886-12.958 17.444-16.979 7.557-4.021 16.807-6.03 27.748-6.03 5.845 0 11.012 0.557 15.502 1.672 4.488 1.114 9.154 3.004 13.999 5.67 0.835 2.271 1.795 4.5 2.881 6.686l-1.566 1.507c-4.677-2.403-8.947-4.086-12.809-5.047z" fill="none" stroke="#89878c" stroke-width="1.823"/>
</g>
</g>
</g>
<text transform="scale(1.0324 .96865)" x="63.632111" y="62.655357" fill="#e0030a" font-family="'Book Antiqua'" font-size="55.246px" font-weight="bold" stroke-width=".7673">
<tspan x="63.632111" y="62.655357" stroke-width=".7673">o</tspan>
</text>
<g transform="matrix(.79213 0 0 -.74324 -102.24 602.43)">
<g clip-path="url(#e)">
<g transform="translate(219.14 732.37)">
<path d="m0 0c2.835-2.979 6.973-4.469 12.41-4.469 5.531 0 9.849 1.595 12.955 4.786 3.106 3.19 4.658 7.73 4.658 13.619 0 5.724-1.348 9.912-4.043 12.563s-6.973 3.977-12.832 3.977c-5.883 0-10.383-1.654-13.5-4.962-2.601-2.792-3.902-6.968-3.902-12.528 0-5.678 1.418-10.007 4.254-12.986zm7.365 24.387c1.254 1.763 2.971 2.644 5.151 2.644 2.531 0 4.394-0.964 5.589-2.89 1.454-2.42 2.18-6.779 2.18-13.076 0-4.582-0.592-7.742-1.775-9.481-1.184-1.739-2.865-2.608-5.045-2.608-2.485 0-4.348 1.022-5.59 3.066-1.594 2.655-2.391 7.108-2.391 13.358 0 4.229 0.627 7.225 1.881 8.987z" fill="none" stroke="#89878c" stroke-miterlimit="10"/>
</g>
</g>
</g>
<text transform="scale(1.0324 .96865)" x="36.009396" y="62.655357" fill="#ffef00" font-family="'Book Antiqua'" font-size="55.246px" font-weight="bold" stroke-width=".7673">
<tspan x="36.009396" y="62.655357" stroke-width=".7673">s</tspan>
</text>
<g transform="matrix(.79213 0 0 -.74324 -102.24 602.43)">
<g clip-path="url(#d)">
<g transform="translate(179.38 740.03)">
<path d="m0 0c-0.07-4.378-0.246-7.586-0.527-9.624l0.527-0.591c2.012-0.626 3.873-1.101 5.582-1.427 1.708-0.324 3.265-0.487 4.669-0.487 4.237 0 7.888 1.056 10.954 3.17 3.066 2.112 4.6 5.153 4.6 9.121 0 2.066-0.428 3.774-1.284 5.124-0.855 1.35-2.104 2.377-3.744 3.081-0.984 0.399-2.754 0.832-5.308 1.301-3.704 0.677-6.047 1.389-7.031 2.137-0.985 0.724-1.477 1.704-1.477 2.942 0 1.331 0.545 2.435 1.635 3.31 1.09 0.876 2.619 1.314 4.588 1.314 1.546 0 3-0.316 4.359-0.949 0.984-0.469 1.652-1.043 2.004-1.723 0.258-0.445 0.457-1.933 0.598-4.465h2.777c0.111 4.024 0.322 6.989 0.633 8.895-2.972 1.125-6.191 1.687-9.654 1.687-3.323 0-5.998-0.474-8.022-1.423-2.025-0.95-3.575-2.256-4.651-3.92-1.077-1.665-1.615-3.575-1.615-5.731 0-1.828 0.364-3.398 1.09-4.711s1.705-2.302 2.936-2.97c1.23-0.668 3.884-1.448 7.963-2.338 2.694-0.586 4.452-1.266 5.273-2.039 0.82-0.781 1.23-1.845 1.23-3.191 0-1.56-0.567-2.813-1.701-3.759-1.134-0.945-2.847-1.418-5.138-1.418-1.871 0-3.514 0.364-4.928 1.09-1.415 0.726-2.38 1.57-2.894 2.532-0.187 0.351-0.34 2.039-0.456 5.062z" fill="none" stroke="#89878c" stroke-miterlimit="10"/>
</g>
</g>
</g>
<text transform="scale(1.0324 .96865)" x="53.657291" y="62.655357" fill="#001881" font-family="'Book Antiqua'" font-size="55.246px" font-weight="bold" stroke-width=".7673">
<tspan x="53.657291" y="62.655357" stroke-width=".7673">t</tspan>
</text>
<g transform="matrix(.79213 0 0 -.74324 -102.24 602.43)">
<g clip-path="url(#c)">
<g transform="translate(199.81 755.08)">
<path d="m0 0c1.172 0.141 2.132 0.211 2.883 0.211l1.793-0.07c0-2.442-0.059-5.762-0.176-9.962-0.118-4.788-0.176-7.745-0.176-8.871 0-2.136 0.299-3.744 0.897-4.823 0.597-1.08 1.558-1.96 2.883-2.64 1.323-0.68 2.97-1.021 4.939-1.021 0.609 0 1.277 0.035 2.004 0.106 0.726 0.07 1.523 0.175 2.39 0.316 1.336 1.688 2.708 3.317 4.114 4.887l-0.598 1.336c-0.68-0.211-1.318-0.375-1.916-0.492-0.598-0.118-1.155-0.176-1.67-0.176-1.758 0-2.871 0.54-3.34 1.62-0.469 1.079-0.703 5.563-0.703 13.452 0 1.807 0.023 3.896 0.071 6.268 0.914 0.093 1.851 0.14 2.812 0.14 1.289 0 3.305-0.094 6.047-0.281 0.163 1.102 0.422 2.308 0.773 3.621l0.317 1.266-0.317 0.211c-1.898-0.329-4.043-0.493-6.433-0.493-1.055 0-2.122 0.094-3.199 0.282 0.187 5.718 0.539 10.277 1.054 13.675l-1.054 0.809c-2.848-1.406-5.871-2.601-9.071-3.586 0.183-3.117 0.3-6.75 0.352-10.898l-4.676-3.059z" fill="none" stroke="#89878c" stroke-miterlimit="10"/>
</g>
</g>
</g>
<text transform="scale(1.0324 .96865)" x="19.128899" y="62.655357" fill="#009832" font-family="'Book Antiqua'" font-size="55.246px" font-weight="bold" stroke-width=".7673">
<tspan x="19.128899" y="62.655357" stroke-width=".7673">o</tspan>
</text>
<g transform="matrix(.79213 0 0 -.74324 -102.24 602.43)">
<g clip-path="url(#b)">
<g transform="translate(161.14 732.37)">
<path d="m0 0c2.835-2.979 6.973-4.469 12.41-4.469 5.531 0 9.849 1.595 12.955 4.786 3.106 3.19 4.658 7.73 4.658 13.619 0 5.724-1.348 9.912-4.043 12.563s-6.973 3.977-12.832 3.977c-5.883 0-10.383-1.654-13.5-4.962-2.601-2.792-3.902-6.968-3.902-12.528 0-5.678 1.418-10.007 4.254-12.986zm7.365 24.387c1.254 1.763 2.971 2.644 5.151 2.644 2.531 0 4.394-0.964 5.589-2.89 1.454-2.42 2.18-6.779 2.18-13.076 0-4.582-0.592-7.742-1.775-9.481-1.184-1.739-2.865-2.608-5.045-2.608-2.485 0-4.348 1.022-5.59 3.066-1.594 2.655-2.391 7.108-2.391 13.358 0 4.229 0.627 7.225 1.881 8.987z" fill="none" stroke="#89878c" stroke-miterlimit="10"/>
</g>
</g>
</g>
<text transform="scale(1.0324 .96865)" x="79.745377" y="62.655357" fill="#1e130f" font-family="'Book Antiqua'" font-size="55.246px" font-weight="bold" stroke-width=".7673">
<tspan x="79.745377" y="62.655357" stroke-width=".7673">s</tspan>
</text>
<g transform="matrix(.79213 0 0 -.74324 -102.24 602.43)">
<g clip-path="url(#a)">
<g transform="translate(236.38 740.03)">
<path d="m0 0c-0.07-4.379-0.246-7.587-0.527-9.623l0.527-0.592c2.012-0.627 3.873-1.101 5.582-1.427 1.708-0.325 3.265-0.487 4.669-0.487 4.237 0 7.888 1.057 10.954 3.17 3.066 2.112 4.6 5.152 4.6 9.12 0 2.067-0.428 3.775-1.284 5.124-0.855 1.351-2.104 2.378-3.744 3.082-0.984 0.399-2.754 0.832-5.308 1.301-3.704 0.677-6.047 1.39-7.031 2.137-0.985 0.724-1.477 1.705-1.477 2.942 0 1.331 0.545 2.435 1.635 3.31 1.09 0.876 2.619 1.314 4.588 1.314 1.546 0 3-0.316 4.359-0.949 0.984-0.469 1.652-1.043 2.004-1.723 0.258-0.445 0.457-1.933 0.598-4.465h2.777c0.111 4.024 0.322 6.989 0.633 8.895-2.972 1.125-6.191 1.687-9.654 1.687-3.323 0-5.998-0.474-8.022-1.423-2.025-0.95-3.575-2.256-4.651-3.92-1.077-1.664-1.615-3.575-1.615-5.731 0-1.828 0.364-3.398 1.09-4.711 0.726-1.312 1.705-2.302 2.936-2.97 1.23-0.668 3.884-1.448 7.963-2.338 2.694-0.586 4.452-1.266 5.273-2.039 0.82-0.781 1.23-1.844 1.23-3.192 0-1.559-0.567-2.812-1.701-3.758-1.134-0.945-2.847-1.418-5.138-1.418-1.871 0-3.514 0.364-4.928 1.09-1.415 0.727-2.38 1.571-2.894 2.532-0.187 0.351-0.34 2.039-0.456 5.062z" fill="none" stroke="#89878c"/>
</g>
</g>
</g>
</g>
</svg>
