<svg xmlns="http://www.w3.org/2000/svg" viewBox="0 0 80 80"><defs><clipPath id="a"><path d="M0 841.89h595.276V0H0z"/></clipPath><clipPath id="b"><path d="M0 841.89h595.276V0H0z"/></clipPath><clipPath id="c"><path d="M0 841.89h595.276V0H0z"/></clipPath><clipPath id="d"><path d="M0 841.89h595.276V0H0z"/></clipPath><clipPath id="e"><path d="M0 841.89h595.276V0H0z"/></clipPath><clipPath id="f"><path d="M0 841.89h595.276V0H0z"/></clipPath></defs><g fill="#fff"><g clip-path="url(#a)" transform="matrix(.60788 0 0 -.574 -78.255 472.78)"><text transform="matrix(.95552 0 0 -1 126.39 710.11)" font-family="'Book Antiqua'" font-size="134.25" font-weight="bold"><tspan x="0 96.92749" y="0">C</tspan></text><path d="M200.71 718.83c-3.863-.962-8.007-1.442-12.433-1.442-11.442 0-20.441 3.583-26.996 10.75-7.099 7.735-10.648 17.852-10.648 30.35 0 11.537 2.951 20.539 8.853 27.008 5.902 6.466 13.858 9.701 23.869 9.701 4.212 0 8.061-.514 11.544-1.54 3.482-1.028 6.246-2.36 8.289-3.999s3.19-2.797 3.441-3.474c.251-.678.501-4.469.752-11.374h5.261c.299 5.638.725 10.358 1.28 14.16.299 2.184.832 4.457 1.601 6.817l-.438.983c-5.22 2.054-10.471 3.583-15.753 4.589a85.44 85.44 0 01-16.003 1.508c-16.202 0-28.907-4.338-38.114-13.013s-13.811-19.807-13.811-33.398c0-9.439 2.035-17.808 6.107-25.105 4.071-7.299 9.886-12.958 17.444-16.979 7.557-4.021 16.807-6.03 27.748-6.03 5.845 0 11.012.557 15.502 1.672 4.488 1.114 9.154 3.004 13.999 5.67a66.935 66.935 0 002.881 6.686l-1.566 1.507c-4.677-2.403-8.947-4.086-12.809-5.047z" stroke="#89878c" stroke-width="1.823"/></g><text transform="matrix(.74712 0 0 .7164 2.347 10.233)" x="63.632" y="62.655" font-family="'Book Antiqua'" font-size="55.246" font-weight="bold" stroke-width=".767"><tspan x="63.632" y="62.655">o</tspan></text><g clip-path="url(#b)" transform="matrix(.57324 0 0 -.5497 -71.641 455.784)"><path d="M219.14 732.37c2.835-2.979 6.973-4.469 12.41-4.469 5.531 0 9.849 1.595 12.955 4.786 3.106 3.19 4.658 7.73 4.658 13.619 0 5.724-1.348 9.912-4.043 12.563s-6.973 3.977-12.832 3.977c-5.883 0-10.383-1.654-13.5-4.962-2.601-2.792-3.902-6.968-3.902-12.528 0-5.678 1.418-10.007 4.254-12.986zm7.365 24.387c1.254 1.763 2.971 2.644 5.151 2.644 2.531 0 4.394-.964 5.589-2.89 1.454-2.42 2.18-6.779 2.18-13.076 0-4.582-.592-7.742-1.775-9.481-1.184-1.739-2.865-2.608-5.045-2.608-2.485 0-4.348 1.022-5.59 3.066-1.594 2.655-2.391 7.108-2.391 13.358 0 4.229.627 7.225 1.881 8.987z" stroke="#89878c" stroke-miterlimit="10"/></g><text transform="matrix(.74712 0 0 .7164 2.347 10.233)" x="36.009" y="62.655" font-family="'Book Antiqua'" font-size="55.246" font-weight="bold" stroke-width=".767"><tspan x="36.009" y="62.655">s</tspan></text><g clip-path="url(#c)" transform="matrix(.57324 0 0 -.5497 -71.641 455.784)"><path d="M179.38 740.03c-.07-4.378-.246-7.586-.527-9.624l.527-.591c2.012-.626 3.873-1.101 5.582-1.427 1.708-.324 3.265-.487 4.669-.487 4.237 0 7.888 1.056 10.954 3.17 3.066 2.112 4.6 5.153 4.6 9.121 0 2.066-.428 3.774-1.284 5.124-.855 1.35-2.104 2.377-3.744 3.081-.984.399-2.754.832-5.308 1.301-3.704.677-6.047 1.389-7.031 2.137-.985.724-1.477 1.704-1.477 2.942 0 1.331.545 2.435 1.635 3.31 1.09.876 2.619 1.314 4.588 1.314 1.546 0 3-.316 4.359-.949.984-.469 1.652-1.043 2.004-1.723.258-.445.457-1.933.598-4.465h2.777c.111 4.024.322 6.989.633 8.895-2.972 1.125-6.191 1.687-9.654 1.687-3.323 0-5.998-.474-8.022-1.423-2.025-.95-3.575-2.256-4.651-3.92-1.077-1.665-1.615-3.575-1.615-5.731 0-1.828.364-3.398 1.09-4.711s1.705-2.302 2.936-2.97c1.23-.668 3.884-1.448 7.963-2.338 2.694-.586 4.452-1.266 5.273-2.039.82-.781 1.23-1.845 1.23-3.191 0-1.56-.567-2.813-1.701-3.759-1.134-.945-2.847-1.418-5.138-1.418-1.871 0-3.514.364-4.928 1.09-1.415.726-2.38 1.57-2.894 2.532-.187.351-.34 2.039-.456 5.062z" stroke="#89878c" stroke-miterlimit="10"/></g><text transform="matrix(.74712 0 0 .7164 2.347 10.233)" x="53.657" y="62.655" font-family="'Book Antiqua'" font-size="55.246" font-weight="bold" stroke-width=".767"><tspan x="53.657" y="62.655">t</tspan></text><g clip-path="url(#d)" transform="matrix(.57324 0 0 -.5497 -71.641 455.784)"><path d="M199.81 755.08c1.172.141 2.132.211 2.883.211l1.793-.07c0-2.442-.059-5.762-.176-9.962-.118-4.788-.176-7.745-.176-8.871 0-2.136.299-3.744.897-4.823.597-1.08 1.558-1.96 2.883-2.64 1.323-.68 2.97-1.021 4.939-1.021.609 0 1.277.035 2.004.106.726.07 1.523.175 2.39.316a105.025 105.025 0 004.114 4.887l-.598 1.336a18.447 18.447 0 00-1.916-.492 8.656 8.656 0 00-1.67-.176c-1.758 0-2.871.54-3.34 1.62-.469 1.079-.703 5.563-.703 13.452 0 1.807.023 3.896.071 6.268.914.093 1.851.14 2.812.14 1.289 0 3.305-.094 6.047-.281.163 1.102.422 2.308.773 3.621l.317 1.266-.317.211c-1.898-.329-4.043-.493-6.433-.493-1.055 0-2.122.094-3.199.282.187 5.718.539 10.277 1.054 13.675l-1.054.809a60.967 60.967 0 00-9.071-3.586c.183-3.117.3-6.75.352-10.898l-4.676-3.059z" stroke="#89878c" stroke-miterlimit="10"/></g><text transform="matrix(.74712 0 0 .7164 2.347 10.233)" x="19.129" y="62.655" font-family="'Book Antiqua'" font-size="55.246" font-weight="bold" stroke-width=".767"><tspan x="19.129" y="62.655">o</tspan></text><g clip-path="url(#e)" transform="matrix(.57324 0 0 -.5497 -71.641 455.784)"><path d="M161.14 732.37c2.835-2.979 6.973-4.469 12.41-4.469 5.531 0 9.849 1.595 12.955 4.786 3.106 3.19 4.658 7.73 4.658 13.619 0 5.724-1.348 9.912-4.043 12.563s-6.973 3.977-12.832 3.977c-5.883 0-10.383-1.654-13.5-4.962-2.601-2.792-3.902-6.968-3.902-12.528 0-5.678 1.418-10.007 4.254-12.986zm7.365 24.387c1.254 1.763 2.971 2.644 5.151 2.644 2.531 0 4.394-.964 5.589-2.89 1.454-2.42 2.18-6.779 2.18-13.076 0-4.582-.592-7.742-1.775-9.481-1.184-1.739-2.865-2.608-5.045-2.608-2.485 0-4.348 1.022-5.59 3.066-1.594 2.655-2.391 7.108-2.391 13.358 0 4.229.627 7.225 1.881 8.987z" stroke="#89878c" stroke-miterlimit="10"/></g><text transform="matrix(.74712 0 0 .7164 2.347 10.233)" x="79.745" y="62.655" font-family="'Book Antiqua'" font-size="55.246" font-weight="bold" stroke-width=".767"><tspan x="79.745" y="62.655">s</tspan></text><g clip-path="url(#f)" transform="matrix(.57324 0 0 -.5497 -71.641 455.784)"><path d="M236.38 740.03c-.07-4.379-.246-7.587-.527-9.623l.527-.592c2.012-.627 3.873-1.101 5.582-1.427 1.708-.325 3.265-.487 4.669-.487 4.237 0 7.888 1.057 10.954 3.17 3.066 2.112 4.6 5.152 4.6 9.12 0 2.067-.428 3.775-1.284 5.124-.855 1.351-2.104 2.378-3.744 3.082-.984.399-2.754.832-5.308 1.301-3.704.677-6.047 1.39-7.031 2.137-.985.724-1.477 1.705-1.477 2.942 0 1.331.545 2.435 1.635 3.31 1.09.876 2.619 1.314 4.588 1.314 1.546 0 3-.316 4.359-.949.984-.469 1.652-1.043 2.004-1.723.258-.445.457-1.933.598-4.465h2.777c.111 4.024.322 6.989.633 8.895-2.972 1.125-6.191 1.687-9.654 1.687-3.323 0-5.998-.474-8.022-1.423-2.025-.95-3.575-2.256-4.651-3.92-1.077-1.664-1.615-3.575-1.615-5.731 0-1.828.364-3.398 1.09-4.711.726-1.312 1.705-2.302 2.936-2.97 1.23-.668 3.884-1.448 7.963-2.338 2.694-.586 4.452-1.266 5.273-2.039.82-.781 1.23-1.844 1.23-3.192 0-1.559-.567-2.812-1.701-3.758-1.134-.945-2.847-1.418-5.138-1.418-1.871 0-3.514.364-4.928 1.09-1.415.727-2.38 1.571-2.894 2.532-.187.351-.34 2.039-.456 5.062z" stroke="#89878c"/></g></g></svg>