<?xml version="1.0" encoding="UTF-8"?>
<svg enable-background="new 0 0 800 800" version="1.1" viewBox="0 0 800 800" xml:space="preserve" xmlns="http://www.w3.org/2000/svg" xmlns:cc="http://creativecommons.org/ns#" xmlns:dc="http://purl.org/dc/elements/1.1/" xmlns:rdf="http://www.w3.org/1999/02/22-rdf-syntax-ns#"><metadata><rdf:RDF><cc:Work rdf:about=""><dc:format>image/svg+xml</dc:format><dc:type rdf:resource="http://purl.org/dc/dcmitype/StillImage"/></cc:Work></rdf:RDF></metadata>
<path d="m-707.14 141.86" fill="none" stroke="#211915" stroke-miterlimit="10"/>
<path d="m-151.31 311.88" fill="none" stroke="#211915" stroke-miterlimit="10"/>
<linearGradient id="g" x1="21.572" x2="189.93" y1="77.198" y2="77.198" gradientUnits="userSpaceOnUse">
	<stop stop-color="#008142" offset="0"/>
	<stop stop-color="#008743" stop-opacity=".9372" offset=".0228"/>
	<stop stop-color="#008E45" stop-opacity=".795" offset=".0745"/>
	<stop stop-color="#009045" stop-opacity=".4" offset=".2182"/>
	<stop stop-color="#11954D" stop-opacity=".4431" offset=".2744"/>
	<stop stop-color="#3CA161" stop-opacity=".5695" offset=".439"/>
	<stop stop-color="#5EAB71" stop-opacity=".6917" offset=".5983"/>
	<stop stop-color="#77B27D" stop-opacity=".8071" offset=".7487"/>
	<stop stop-color="#86B784" stop-opacity=".9129" offset=".8864"/>
	<stop stop-color="#8BB886" offset="1"/>
</linearGradient>
<linearGradient id="f" x1="214" x2="374" y1="201" y2="201" gradientUnits="userSpaceOnUse">
	<stop stop-color="#008142" offset="0"/>
	<stop stop-color="#008743" stop-opacity=".9372" offset=".0228"/>
	<stop stop-color="#008E45" stop-opacity=".795" offset=".0745"/>
	<stop stop-color="#009045" stop-opacity=".4" offset=".2182"/>
	<stop stop-color="#11954D" stop-opacity=".4431" offset=".2744"/>
	<stop stop-color="#3CA161" stop-opacity=".5695" offset=".439"/>
	<stop stop-color="#5EAB71" stop-opacity=".6917" offset=".5983"/>
	<stop stop-color="#77B27D" stop-opacity=".8071" offset=".7487"/>
	<stop stop-color="#86B784" stop-opacity=".9129" offset=".8864"/>
	<stop stop-color="#8BB886" offset="1"/>
</linearGradient>
<linearGradient id="e" x1="-375.43" x2="-207.07" y1="538.2" y2="538.2" gradientTransform="matrix(-1 0 0 -1 395.4 1257.2)" gradientUnits="userSpaceOnUse">
	<stop stop-color="#008142" offset="0"/>
	<stop stop-color="#008743" stop-opacity=".9372" offset=".0228"/>
	<stop stop-color="#008E45" stop-opacity=".795" offset=".0745"/>
	<stop stop-color="#009045" stop-opacity=".4" offset=".2182"/>
	<stop stop-color="#11954D" stop-opacity=".4431" offset=".2744"/>
	<stop stop-color="#3CA161" stop-opacity=".5695" offset=".439"/>
	<stop stop-color="#5EAB71" stop-opacity=".6917" offset=".5983"/>
	<stop stop-color="#77B27D" stop-opacity=".8071" offset=".7487"/>
	<stop stop-color="#86B784" stop-opacity=".9129" offset=".8864"/>
	<stop stop-color="#8BB886" offset="1"/>
</linearGradient>
<linearGradient id="d" x1="-183" x2="-23" y1="662" y2="662" gradientTransform="matrix(-1 0 0 -1 395.4 1257.2)" gradientUnits="userSpaceOnUse">
	<stop stop-color="#008142" offset="0"/>
	<stop stop-color="#008743" stop-opacity=".9372" offset=".0228"/>
	<stop stop-color="#008E45" stop-opacity=".795" offset=".0745"/>
	<stop stop-color="#009045" stop-opacity=".4" offset=".2182"/>
	<stop stop-color="#11954D" stop-opacity=".4431" offset=".2744"/>
	<stop stop-color="#3CA161" stop-opacity=".5695" offset=".439"/>
	<stop stop-color="#5EAB71" stop-opacity=".6917" offset=".5983"/>
	<stop stop-color="#77B27D" stop-opacity=".8071" offset=".7487"/>
	<stop stop-color="#86B784" stop-opacity=".9129" offset=".8864"/>
	<stop stop-color="#8BB886" offset="1"/>
</linearGradient>
<linearGradient id="c" x1="3.5723" x2="171.93" y1="502.2" y2="502.2" gradientTransform="matrix(0 1 -1 0 1219.3 19.925)" gradientUnits="userSpaceOnUse">
	<stop stop-color="#008142" offset="0"/>
	<stop stop-color="#008743" stop-opacity=".9372" offset=".0228"/>
	<stop stop-color="#008E45" stop-opacity=".795" offset=".0745"/>
	<stop stop-color="#009045" stop-opacity=".4" offset=".2182"/>
	<stop stop-color="#11954D" stop-opacity=".4431" offset=".2744"/>
	<stop stop-color="#3CA161" stop-opacity=".5695" offset=".439"/>
	<stop stop-color="#5EAB71" stop-opacity=".6917" offset=".5983"/>
	<stop stop-color="#77B27D" stop-opacity=".8071" offset=".7487"/>
	<stop stop-color="#86B784" stop-opacity=".9129" offset=".8864"/>
	<stop stop-color="#8BB886" offset="1"/>
</linearGradient>
<linearGradient id="b" x1="196" x2="356" y1="626" y2="626" gradientTransform="matrix(0 1 -1 0 1219.3 19.925)" gradientUnits="userSpaceOnUse">
	<stop stop-color="#008142" offset="0"/>
	<stop stop-color="#008743" stop-opacity=".9372" offset=".0228"/>
	<stop stop-color="#008E45" stop-opacity=".795" offset=".0745"/>
	<stop stop-color="#009045" stop-opacity=".4" offset=".2182"/>
	<stop stop-color="#11954D" stop-opacity=".4431" offset=".2744"/>
	<stop stop-color="#3CA161" stop-opacity=".5695" offset=".439"/>
	<stop stop-color="#5EAB71" stop-opacity=".6917" offset=".5983"/>
	<stop stop-color="#77B27D" stop-opacity=".8071" offset=".7487"/>
	<stop stop-color="#86B784" stop-opacity=".9129" offset=".8864"/>
	<stop stop-color="#8BB886" offset="1"/>
</linearGradient>
<linearGradient id="a" x1="-28.429" x2="139.93" y1="-298.8" y2="-298.8" gradientTransform="matrix(0 -1 1 0 375.08 744.33)" gradientUnits="userSpaceOnUse">
	<stop stop-color="#008142" offset="0"/>
	<stop stop-color="#008743" stop-opacity=".9372" offset=".0228"/>
	<stop stop-color="#008E45" stop-opacity=".795" offset=".0745"/>
	<stop stop-color="#009045" stop-opacity=".4" offset=".2182"/>
	<stop stop-color="#11954D" stop-opacity=".4431" offset=".2744"/>
	<stop stop-color="#3CA161" stop-opacity=".5695" offset=".439"/>
	<stop stop-color="#5EAB71" stop-opacity=".6917" offset=".5983"/>
	<stop stop-color="#77B27D" stop-opacity=".8071" offset=".7487"/>
	<stop stop-color="#86B784" stop-opacity=".9129" offset=".8864"/>
	<stop stop-color="#8BB886" offset="1"/>
</linearGradient>
<linearGradient id="h" x1="164" x2="324" y1="-175" y2="-175" gradientTransform="matrix(0 -1 1 0 375.08 744.33)" gradientUnits="userSpaceOnUse">
	<stop stop-color="#008142" offset="0"/>
	<stop stop-color="#008743" stop-opacity=".9372" offset=".0228"/>
	<stop stop-color="#008E45" stop-opacity=".795" offset=".0745"/>
	<stop stop-color="#009045" stop-opacity=".4" offset=".2182"/>
	<stop stop-color="#11954D" stop-opacity=".4431" offset=".2744"/>
	<stop stop-color="#3CA161" stop-opacity=".5695" offset=".439"/>
	<stop stop-color="#5EAB71" stop-opacity=".6917" offset=".5983"/>
	<stop stop-color="#77B27D" stop-opacity=".8071" offset=".7487"/>
	<stop stop-color="#86B784" stop-opacity=".9129" offset=".8864"/>
	<stop stop-color="#8BB886" offset="1"/>
</linearGradient>
<path d="m141.75 396.9" fill="none" stroke="#211915" stroke-miterlimit="10"/><path d="m123.54 202.67c-6.25 1.24-12.71 1.79-19.32 1.79-3.42 0-6.81-0.28-10.14-0.62 3.46 0.37 6.98 0.77 10.54 0.77 6.4 0 12.65-0.59 18.71-1.57 0.08-0.01 0.17-0.03 0.25-0.04h0.01c0.03 0 0.04-0.31 0.07-0.35-0.04 0.01-0.08 0.02-0.12 0.02zm-4.21-195.63c47.64 7.28 84.12 48.42 84.12 98.08 0 2.54 0.1 5.04-0.08 7.52 0.02-0.01 0.04-0.02 0.07-0.03 0.08-0.03 0.25-0.07 0.56-0.1v-0.34c0-2.31 0.06-4.65 0.06-7 0-49.79-36.9-91.03-84.73-98.13zm84.04 105.71v-0.09s0 0.01-0.01 0.01c-0.02 0.02 0 0.05 0.01 0.08z" fill="none"/><path d="m170.1 425.25" fill="#00A600"/><path d="m354.68 35.23c-33.92 54.16-21.25 149.52-1.21 228.73 0.59 2.29 1.17 4.569 1.76 6.84 15.24 58.32 33.94 106.74 39.84 121.48l-0.05 5.221c-199.35-197.85-225.91 27.75-225.91 27.75-82.46-82.46-82.06-158.22-45.78-222.21 0.07-0.12 0.14-0.25 0.21-0.37 0.02-0.029 0.03-0.061 0.05-0.09 0.03-0.051 0.04-0.1 0.07-0.141-6.29 1.25-12.79 1.91-19.44 1.91-3.42 0-6.81-0.17-10.14-0.51-1.54-0.16-3.06-0.35-4.57-0.58-47.63-7.279-84.11-48.419-84.11-98.089 0-54.79 44.42-99.22 99.22-99.22 3.42 0 6.81 0.17 10.15 0.51 1.53 0.16 3.05 0.35 4.56 0.58 47.64 7.28 84.12 48.42 84.12 98.08 0 2.6-0.1 5.17-0.3 7.71 0.07-0.05 0.14-0.11 0.21-0.16 0.01 0 0.01-0.01 0.01-0.01 0.02-0.01 0.05-0.03 0.07-0.05 0.05-0.03 0.1-0.06 0.14-0.1 0.02-0.01 0.04-0.03 0.05-0.04 0.12-0.1 0-0.2 0.12-0.3 85.43-70.19 192.25-112.17 192.25-112.17v0.07c-11 4.73-21.36 11.42-29.47 19.71-0.5 0.52-0.875 1.04-1.375 1.57-1.97 2.12-3.777 4.35-5.547 6.67-0.88 1.15-1.699 2.33-2.529 3.53-0.84 1.2-1.619 2.43-2.399 3.68z" fill="#00A600"/><path d="m396.67 0c-0.06 0.02-0.11 0.05-0.17 0.07" fill="none" stroke="#211915" stroke-miterlimit="10"/><path d="m185.39 131.45c-0.447 1.317-0.918 2.613-1.429 3.897-8.189-31.102-31.333-57.625-64.078-68.739-35.226-11.954-72.492-2.996-98.313 20.218 0.695-3.354 1.611-6.708 2.743-10.042 15.095-44.478 63.393-68.3 107.87-53.206 44.479 15.096 68.301 63.394 53.206 107.87z" fill="url(#g)" opacity=".72"/><path d="m214 124.33s47.333-43.333 128.67-88c0 0-26 28.667-23.333 95.333s0 62 54.667 234c0 0-99.26-208.86-90-254 0.094-0.459 0.165-0.896 0.212-1.311 2.625-23.128-66.283 19.873-70.213 13.978z" fill="url(#f)" opacity=".72"/><path d="m438.72 758.02c33.92-54.16 21.25-149.52 1.209-228.73-0.59-2.29-1.17-4.569-1.76-6.84-15.24-58.32-33.939-106.74-39.839-121.48l0.05-5.221c199.35 197.85 225.91-27.751 225.91-27.751 82.459 82.46 82.06 158.22 45.779 222.21-0.07 0.12-0.141 0.25-0.21 0.37-0.021 0.029-0.03 0.061-0.05 0.09-0.03 0.051-0.04 0.1-0.07 0.141 6.29-1.25 12.79-1.91 19.439-1.91 3.421 0 6.811 0.17 10.141 0.51 1.54 0.16 3.061 0.35 4.57 0.58 47.631 7.279 84.11 48.419 84.11 98.089 0 54.79-44.42 99.22-99.22 99.22-3.42 0-6.81-0.17-10.149-0.51-1.53-0.16-3.051-0.351-4.561-0.58-47.641-7.28-84.12-48.42-84.12-98.08 0-2.601 0.101-5.17 0.3-7.71-0.07 0.051-0.14 0.109-0.209 0.16-0.011 0-0.011 0.01-0.011 0.01-0.021 0.01-0.05 0.03-0.069 0.051-0.051 0.029-0.101 0.06-0.141 0.1-0.02 0.01-0.04 0.029-0.05 0.039-0.12 0.101-0.2 0.201-0.32 0.301-85.43 70.189-192.45 112.17-192.45 112.17v-0.07c11-4.729 21.561-11.42 29.67-19.709 0.5-0.521 0.976-1.041 1.476-1.57 1.97-2.121 3.827-4.351 5.598-6.67 0.88-1.15 1.724-2.33 2.554-3.53 0.839-1.201 1.642-2.431 2.423-3.681z" fill="#FF2121"/><path d="m607.01 664.8c0.446-1.317 0.918-2.613 1.428-3.897 8.189 31.102 31.333 57.625 64.078 68.739 35.227 11.954 72.492 2.995 98.313-20.218-0.695 3.354-1.611 6.708-2.742 10.041-15.095 44.479-63.393 68.301-107.87 53.206s-68.302-63.393-53.206-107.87z" fill="url(#e)" opacity=".72"/><path d="m578.4 671.92s-47.334 43.333-128.67 88c0 0 26.001-28.667 23.333-95.333-2.666-66.666 0-62-54.666-234 0 0 99.26 208.86 90 254-0.095 0.459-0.165 0.896-0.213 1.311-2.624 23.128 66.284-19.873 70.213-13.978z" fill="url(#d)" opacity=".72"/><path d="m758.1 354.6c-54.16-33.92-149.52-21.25-228.73-1.209-2.29 0.59-4.569 1.17-6.84 1.76-58.32 15.24-106.74 33.939-121.48 39.84l-5.221-0.051c197.85-199.35-27.75-225.91-27.75-225.91 82.46-82.459 158.22-82.06 222.21-45.779 0.12 0.07 0.25 0.141 0.37 0.21 0.029 0.021 0.061 0.03 0.09 0.05 0.051 0.03 0.1 0.04 0.141 0.07-1.25-6.29-1.91-12.79-1.91-19.439 0-3.421 0.17-6.811 0.51-10.141 0.16-1.54 0.35-3.061 0.58-4.57 7.279-47.63 48.42-84.109 98.09-84.109 54.79 0 99.22 44.42 99.22 99.22 0 3.42-0.17 6.81-0.51 10.149-0.16 1.53-0.351 3.051-0.58 4.561-7.28 47.641-48.42 84.12-98.08 84.12-2.601 0-5.17-0.101-7.71-0.3 0.051 0.07 0.109 0.14 0.16 0.209 0 0.011 0.01 0.011 0.01 0.011 0.01 0.021 0.03 0.05 0.051 0.069 0.029 0.051 0.06 0.101 0.1 0.141 0.01 0.02 0.029 0.04 0.039 0.05 0.101 0.12 0.201 0.037 0.301 0.158 70.187 85.429 112.17 192.29 112.17 192.29h-0.07c-4.729-11-11.42-21.396-19.709-29.508-0.521-0.5-1.041-0.895-1.57-1.395-2.121-1.969-4.351-3.786-6.67-5.556-1.15-0.88-2.33-1.704-3.53-2.534-1.201-0.839-2.431-1.622-3.681-2.403z" fill="#FF9020"/><path d="m662.87 187.32c-1.317-0.446-2.613-0.918-3.897-1.428 31.102-8.189 57.625-31.333 68.739-64.078 11.954-35.227 2.995-72.492-20.218-98.313 3.354 0.695 6.708 1.611 10.041 2.742 44.479 15.095 68.301 63.393 53.206 107.87s-63.392 68.302-107.87 53.206z" fill="url(#c)" opacity=".72"/><path d="m669.99 215.92s43.333 47.334 88 128.67c0 0-28.667-26.001-95.333-23.333-66.666 2.666-62 0-234 54.666 0 0 208.86-99.26 254-90 0.459 0.095 0.896 0.165 1.311 0.213 23.129 2.625-19.873-66.284-13.978-70.213z" fill="url(#b)" opacity=".72"/><path d="m35.305 437.65c54.161 33.92 149.52 21.25 228.73 1.209 2.29-0.59 4.569-1.17 6.84-1.76 58.32-15.24 106.74-33.939 121.48-39.84l5.221 0.051c-197.85 199.35 27.75 225.91 27.75 225.91-82.46 82.459-158.22 82.06-222.21 45.779-0.12-0.07-0.25-0.141-0.37-0.21-0.029-0.021-0.061-0.03-0.09-0.05-0.051-0.03-0.1-0.04-0.141-0.07 1.25 6.29 1.91 12.79 1.91 19.439 0 3.421-0.17 6.811-0.51 10.141-0.16 1.54-0.35 3.061-0.58 4.57-7.279 47.63-48.42 84.11-98.09 84.11-54.79 0-99.22-44.421-99.22-99.221 0-3.42 0.17-6.81 0.51-10.149 0.16-1.53 0.35-3.051 0.58-4.561 7.28-47.641 48.42-84.12 98.08-84.12 2.601 0 5.17 0.101 7.71 0.3-0.05-0.07-0.109-0.14-0.16-0.209 0-0.011-0.01-0.011-0.01-0.011-0.01-0.021-0.03-0.05-0.05-0.069-0.03-0.051-0.061-0.101-0.101-0.141-0.01-0.02-0.029-0.04-0.039-0.05-0.101-0.12-0.2-0.162-0.301-0.283-70.188-85.429-112.17-192.41-112.17-192.41h0.07c4.73 11 11.42 21.521 19.71 29.633 0.52 0.5 1.04 0.957 1.57 1.457 2.12 1.969 4.35 3.818 6.67 5.588 1.15 0.879 2.33 1.719 3.53 2.549 1.2 0.839 2.43 1.638 3.68 2.419z" fill="#006DAF"/><path d="m130.53 608.94c1.317 0.446 2.613 0.918 3.897 1.428-31.102 8.189-57.625 31.333-68.739 64.078-11.954 35.227-2.995 72.492 20.219 98.313-3.354-0.695-6.709-1.611-10.042-2.743-44.478-15.095-68.3-63.393-53.206-107.87s63.393-68.301 107.87-53.205z" fill="url(#a)" opacity=".72"/><path d="m123.41 580.32s-43.333-47.334-88-128.67c0 0 28.667 26.001 95.333 23.333 66.666-2.666 62 0 234-54.666 0 0-208.86 99.26-254 90-0.459-0.095-0.896-0.165-1.311-0.213-23.128-2.625 19.874 66.284 13.978 70.213z" fill="url(#h)" opacity=".72"/>
</svg>
